GIL04_free3_ik
nRows=3
nColumns=375

# SIMM Motion File Header:
name GIL04_free3_ik
datacolumns 375
datarows 3
otherdata 1
range 0.60833000 0.62500000
endheader
time	pelvis_tx	pelvis_ty	pelvis_tz	pelvis_tilt	pelvis_list	pelvis_rotation	hip_flexion_r	hip_adduction_r	hip_rotation_r	knee_angle_r	ankle_angle_r	hip_flexion_l	hip_adduction_l	hip_rotation_l	knee_angle_l	ankle_angle_l	lumbar_extension	lumbar_bending	lumbar_rotation	subtalar_angle_r	mtp_angle_r	subtalar_angle_l	mtp_angle_l	asis_r_px	asis_r_py	asis_r_pz	asis_l_px	asis_l_py	asis_l_pz	midasis_px	midasis_py	midasis_pz	psis_r_px	psis_r_py	psis_r_pz	psis_l_px	psis_l_py	psis_l_pz	hip_r_px	hip_r_py	hip_r_pz	hip_l_px	hip_l_py	hip_l_pz	midhip_px	midhip_py	midhip_pz	epicondLat_r_px	epicondLat_r_py	epicondLat_r_pz	epicondMed_r_px	epicondMed_r_py	epicondMed_r_pz	thighwand_r_px	thighwand_r_py	thighwand_r_pz	upperleg1_r_px	upperleg1_r_py	upperleg1_r_pz	upperleg2_r_px	upperleg2_r_py	upperleg2_r_pz	malleolusLat_r_px	malleolusLat_r_py	malleolusLat_r_pz	malleolusMedv_r_px	malleolusMedv_r_py	malleolusMedv_r_pz	shankwand_r_px	shankwand_r_py	shankwand_r_pz	lowerleg1_r_px	lowerleg1_r_py	lowerleg1_r_pz	knee_r_px	knee_r_py	knee_r_pz	ankle_r_px	ankle_r_py	ankle_r_pz	toe_r_px	toe_r_py	toe_r_pz	epicondLat_l_px	epicondLat_l_py	epicondLat_l_pz	epicondMed_l_px	epicondMed_l_py	epicondMed_l_pz	thighwand_l_px	thighwand_l_py	thighwand_l_pz	upperleg1_l_px	upperleg1_l_py	upperleg1_l_pz	upperleg2_l_px	upperleg2_l_py	upperleg2_l_pz	malleolusLat_l_px	malleolusLat_l_py	malleolusLat_l_pz	malleolusMedv_l_px	malleolusMedv_l_py	malleolusMedv_l_pz	shankwand_l_px	shankwand_l_py	shankwand_l_pz	lowerleg1_l_px	lowerleg1_l_py	lowerleg1_l_pz	knee_l_px	knee_l_py	knee_l_pz	ankle_l_px	ankle_l_py	ankle_l_pz	toe_l_px	toe_l_py	toe_l_pz	subclavicle_r_px	subclavicle_r_py	subclavicle_r_pz	subclavicle_l_px	subclavicle_l_py	subclavicle_l_pz	neck_px	neck_py	neck_pz	sternalnotch_px	sternalnotch_py	sternalnotch_pz	xyphoidprocess_px	xyphoidprocess_py	xyphoidprocess_pz	midhip_tx	midhip_ty	midhip_tz	hip_r_tx	hip_r_ty	hip_r_tz	hip_l_tx	hip_l_ty	hip_l_tz	knee_r_tx	knee_r_ty	knee_r_tz	knee_l_tx	knee_l_ty	knee_l_tz	ankle_r_tx	ankle_r_ty	ankle_r_tz	ankle_l_tx	ankle_l_ty	ankle_l_tz	midasis_tx	midasis_ty	midasis_tz	asis_r_tx	asis_r_ty	asis_r_tz	asis_l_tx	asis_l_ty	asis_l_tz	psis_r_tx	psis_r_ty	psis_r_tz	psis_l_tx	psis_l_ty	psis_l_tz	epicondLat_r_tx	epicondLat_r_ty	epicondLat_r_tz	epicondLat_l_tx	epicondLat_l_ty	epicondLat_l_tz	epicondMed_r_tx	epicondMed_r_ty	epicondMed_r_tz	epicondMed_l_tx	epicondMed_l_ty	epicondMed_l_tz	malleolusLat_r_tx	malleolusLat_r_ty	malleolusLat_r_tz	malleolusLat_l_tx	malleolusLat_l_ty	malleolusLat_l_tz	malleolusMedv_r_tx	malleolusMedv_r_ty	malleolusMedv_r_tz	malleolusMedv_l_tx	malleolusMedv_l_ty	malleolusMedv_l_tz	neck_tx	neck_ty	neck_tz	subclavicle_r_tx	subclavicle_r_ty	subclavicle_r_tz	subclavicle_l_tx	subclavicle_l_ty	subclavicle_l_tz	sternalnotch_tx	sternalnotch_ty	sternalnotch_tz	xyphoidprocess_tx	xyphoidprocess_ty	xyphoidprocess_tz	thighwand_r_tx	thighwand_r_ty	thighwand_r_tz	thighwand_l_tx	thighwand_l_ty	thighwand_l_tz	upperleg1_r_tx	upperleg1_r_ty	upperleg1_r_tz	upperleg1_l_tx	upperleg1_l_ty	upperleg1_l_tz	upperleg2_r_tx	upperleg2_r_ty	upperleg2_r_tz	upperleg2_l_tx	upperleg2_l_ty	upperleg2_l_tz	shankwand_r_tx	shankwand_r_ty	shankwand_r_tz	shankwand_l_tx	shankwand_l_ty	shankwand_l_tz	lowerleg1_r_tx	lowerleg1_r_ty	lowerleg1_r_tz	lowerleg1_l_tx	lowerleg1_l_ty	lowerleg1_l_tz	toe_r_tx	toe_r_ty	toe_r_tz	toe_l_tx	toe_l_ty	toe_l_tz	ground_force_vx	ground_force_vy	ground_force_vz	ground_force_px	ground_force_py	ground_force_pz	ground_force_vx	ground_force_vy	ground_force_vz	ground_force_px	ground_force_py	ground_force_pz	ground_torque_x	ground_torque_y	ground_torque_z	ground_torque_x	ground_torque_y	ground_torque_z	ground_marker_px	ground_marker_py	ground_marker_pz	ground_marker_px	ground_marker_py	ground_marker_pz	ground_marker_px	ground_marker_py	ground_marker_pz	ground_marker_px	ground_marker_py	ground_marker_pz	ground_marker_px	ground_marker_py	ground_marker_pz	ground_marker_px	ground_marker_py	ground_marker_pz	ground_marker_px	ground_marker_py	ground_marker_pz	ground_marker_px	ground_marker_py	ground_marker_pz	ground_marker_px	ground_marker_py	ground_marker_pz	ground_marker_px	ground_marker_py	ground_marker_pz	ground_marker_px	ground_marker_py	ground_marker_pz	ground_marker_px	ground_marker_py	ground_marker_pz	ground_marker_px	ground_marker_py	ground_marker_pz	ground_marker_px	ground_marker_py	ground_marker_pz	ground_marker_px	ground_marker_py	ground_marker_pz	ground_marker_px	ground_marker_py	ground_marker_pz	ground_marker_px	ground_marker_py	ground_marker_pz	ground_marker_px	ground_marker_py	ground_marker_pz	ground_marker_px	ground_marker_py	ground_marker_pz	ground_marker_px	ground_marker_py	ground_marker_pz	ground_marker_px	ground_marker_py	ground_marker_pz	ground_marker_px	ground_marker_py	ground_marker_pz	ground_marker_px	ground_marker_py	ground_marker_pz	ground_marker_px	ground_marker_py	ground_marker_pz	ground_marker_px	ground_marker_py	ground_marker_pz	ground_marker_px	ground_marker_py	ground_marker_pz	ground_marker_px	ground_marker_py	ground_marker_pz	ground_marker_px	ground_marker_py	ground_marker_pz	ground_marker_px	ground_marker_py	ground_marker_pz	ground_marker_px	ground_marker_py	ground_marker_pz	ground_marker_px	ground_marker_py	ground_marker_pz	ground_marker_px	ground_marker_py	ground_marker_pz	ground_marker_px	ground_marker_py	ground_marker_pz	ground_marker_px	ground_marker_py	ground_marker_pz	ground_marker_px	ground_marker_py	ground_marker_pz	ground_marker_px	ground_marker_py	ground_marker_pz	ground_marker_px	ground_marker_py	ground_marker_pz
      0.60833000	      1.71055042	      0.70258818	     -0.20589649	     -2.20798467	     -2.03722625	      4.82449456	     32.30359027	      3.26680654	     -4.59335064	    -14.83808153	     -5.18064522	    -22.54878400	      0.53928766	     -7.33792900	    -12.69168698	     -7.21514180	      0.03993877	      3.12983462	     -1.66996084	      0.00000000	      0.00000000	      0.00000000	      0.00000000	      1.82125347	      0.68927275	     -0.13471719	      1.81125474	      0.67400120	     -0.32065544	      1.72072288	      0.70216541	     -0.20675527	      1.68523820	      0.75730197	     -0.20742080	      1.68073364	      0.74802376	     -0.26137860	      1.66252670	      0.65850837	     -0.13915957	      1.65211749	      0.65458919	     -0.26052993	      1.65732210	      0.65654878	     -0.19984475	      1.86393010	      0.37935876	     -0.10516613	      1.85912880	      0.38384148	     -0.20546315	      1.82453320	      0.47223662	     -0.02838480	      1.83386528	      0.54214371	     -0.09482914	      1.87418519	      0.46877199	     -0.10938630	      1.93120353	      0.05671723	     -0.11977097	      1.93376221	      0.06714578	     -0.17891765	      1.88728730	      0.15323913	     -0.04798734	      1.88739316	      0.21021462	     -0.10798586	      1.82281222	      0.37371769	     -0.16259839	      1.90430201	      0.06541111	     -0.18388233	      2.03755317	      0.04594362	     -0.14950623	      1.53349382	      0.33029657	     -0.31261437	      1.55089552	      0.31891651	     -0.21058085	      1.69964417	      0.34894937	     -0.32649835	      1.68294982	      0.42856783	     -0.26216818	      1.62862690	      0.36081008	     -0.24944575	      1.31002397	      0.09077700	     -0.27659138	      1.32436052	      0.08814593	     -0.21460441	      1.44173069	      0.10573870	     -0.30194414	      1.43827887	      0.18603766	     -0.27392682	      1.51384634	      0.35877737	     -0.23575258	      1.32177045	      0.10596398	     -0.19916324	      1.36144815	     -0.00331783	     -0.26405957	      1.66806727	      1.09921210	     -0.13345851	      1.67135015	      1.11434274	     -0.24781633	      1.58907729	      1.10023172	     -0.19297549	      1.67215661	      1.09495173	     -0.19473065	      1.76949442	      0.98893347	     -0.20529311	      1.66482100	      0.65029900	     -0.19593000	      1.66264500	      0.65928600	     -0.13246500	      1.64962900	      0.65732600	     -0.25760300	      1.82206300	      0.37848300	     -0.16668400	      1.52165100	      0.37457500	     -0.23207000	      1.90668400	      0.06052600	     -0.16719400	      1.32027900	      0.11650300	     -0.22447300	      1.72177200	      0.72139700	     -0.20284900	      1.73154300	      0.72286800	     -0.10891100	      1.71200100	      0.71992500	     -0.29678800	      1.58027500	      0.75944300	     -0.16208500	      1.57275700	      0.75774100	     -0.21710800	      1.82541200	      0.37426600	     -0.11647200	      1.51015500	      0.37538500	     -0.28072400	      1.81052500	      0.36446400	     -0.21230800	      1.53222300	      0.37611700	     -0.17961600	      1.90180500	      0.05917400	     -0.13407900	      1.31414600	      0.12029600	     -0.25821100	      1.90931100	      0.06944900	     -0.19379900	      1.31451900	      0.12731600	     -0.19565200	      1.60020100	      1.10420600	     -0.19260400	      1.68073000	      1.05410600	     -0.12999200	      1.67939200	      1.05807700	     -0.25966100	      1.67447100	      1.04540000	     -0.19773300	      1.69084700	      0.90185800	     -0.20148700	      1.78917800	      0.44246200	     -0.02864000	      1.68057500	      0.42374500	     -0.30247600	      1.78610700	      0.51385100	     -0.09030400	      1.65337300	      0.49780400	     -0.23576500	      1.82966500	      0.44512700	     -0.11326700	      1.60422000	      0.42318400	     -0.22054100	      1.86488000	      0.15188100	     -0.06059500	      1.44463600	      0.14363600	     -0.26903200	      1.86000000	      0.20998600	     -0.12002100	      1.43134000	      0.22527900	     -0.24641900	      2.00482000	      0.05951200	     -0.16311200	      1.36990800	      0.04017200	     -0.21887800	    -48.10350235	    195.50296346	      3.56968511	      1.89266833	      0.00000000	     -0.17184384	     65.77770086	    200.21704289	     -5.82394977	      1.38573718	      0.00000000	     -0.20929327	      0.00000000	      0.36901349	      0.00000000	      0.00000000	      0.15160986	      0.00000000	      1.66482091	      0.65029907	     -0.19592980	      1.66264498	      0.65928632	     -0.13246474	      1.64962864	      0.65732610	     -0.25760323	      1.82206333	      0.37848347	     -0.16668375	      1.52165103	      0.37457541	     -0.23207012	      1.90668440	      0.06052570	     -0.16719398	      1.32027924	      0.11650345	     -0.22447270	      1.72177196	      0.72139680	     -0.20284933	      1.73154306	      0.72286820	     -0.10891064	      1.71200085	      0.71992534	     -0.29678801	      1.58027542	      0.75944257	     -0.16208479	      1.57275712	      0.75774056	     -0.21710812	      1.82541239	      0.37426588	     -0.11647174	      1.51015544	      0.37538493	     -0.28072393	      1.81052530	      0.36446384	     -0.21230781	      1.53222311	      0.37611678	     -0.17961596	      1.90180516	      0.05917402	     -0.13407879	      1.31414640	      0.12029567	     -0.25821075	      1.90931118	      0.06944900	     -0.19379924	      1.31451857	      0.12731576	     -0.19565235	      1.60020053	      1.10420585	     -0.19260377	      1.68072987	      1.05410576	     -0.12999201	      1.67939234	      1.05807722	     -0.25966135	      1.67447066	      1.04539979	     -0.19773288	      1.69084740	      0.90185839	     -0.20148678	      1.78917766	      0.44246200	     -0.02864024	      1.68057489	      0.42374471	     -0.30247593	      1.78610694	      0.51385063	     -0.09030442	      1.65337253	      0.49780354	     -0.23576513	      1.82966518	      0.44512671	     -0.11326672	      1.60421991	      0.42318380	     -0.22054139	      1.86487961	      0.15188076	     -0.06059481	      1.44463623	      0.14363606	     -0.26903155	      1.85999954	      0.20998564	     -0.12002064	      1.43134046	      0.22527923	     -0.24641892	      2.00482011	      0.05951153	     -0.16311170	      1.36990786	      0.04017203	     -0.21887757
      0.61667000	      1.72229631	      0.70341076	     -0.20497692	     -2.07425028	     -2.45367332	      4.48237472	     32.11901662	      4.07451964	     -3.74265092	    -16.34517262	     -5.47711591	    -22.23156062	     -0.05005187	     -7.64562200	    -14.56063821	     -9.65070542	      0.03387048	      3.76162862	     -1.46822008	      0.00000000	      0.00000000	      0.00000000	      0.00000000	      1.83262537	      0.69091472	     -0.13307207	      1.82372563	      0.67422717	     -0.31894447	      1.73247454	      0.70300791	     -0.20577470	      1.69685393	      0.75804589	     -0.20705496	      1.69268067	      0.74835276	     -0.26096643	      1.67400536	      0.65970708	     -0.13818548	      1.66429819	      0.65485338	     -0.25958024	      1.66915177	      0.65728023	     -0.19888286	      1.87564839	      0.38049116	     -0.10621766	      1.86943821	      0.38468630	     -0.20644976	      1.83740994	      0.47362432	     -0.02916041	      1.84585999	      0.54333025	     -0.09593329	      1.88591321	      0.46988325	     -0.11084274	      1.93446706	      0.05510089	     -0.12050395	      1.93638301	      0.06521665	     -0.17972922	      1.89429817	      0.15306597	     -0.04848102	      1.89500581	      0.20977417	     -0.10872817	      1.83401802	      0.37474249	     -0.16306438	      1.90681282	      0.06425979	     -0.18422915	      2.03993465	      0.04066407	     -0.15200502	      1.54823401	      0.32996964	     -0.31370726	      1.56521607	      0.31825042	     -0.21164143	      1.71431388	      0.34985945	     -0.32668799	      1.69674042	      0.42906541	     -0.26208335	      1.64283778	      0.36086829	     -0.24993382	      1.31799921	      0.09475517	     -0.27807428	      1.33199303	      0.09190004	     -0.21601894	      1.45014751	      0.10638475	     -0.30287056	      1.44857015	      0.18680394	     -0.27503041	      1.52824075	      0.35769256	     -0.23686763	      1.32977889	      0.10980968	     -0.20062531	      1.36277935	     -0.00297362	     -0.26322934	      1.67890338	      1.09967483	     -0.13212253	      1.68246014	      1.11522646	     -0.24641566	      1.60006761	      1.10078152	     -0.19184207	      1.68315981	      1.09564393	     -0.19339881	      1.78069930	      0.98982425	     -0.20409122	      1.67674500	      0.65109100	     -0.19489500	      1.67446400	      0.66046100	     -0.13152700	      1.66199400	      0.65744200	     -0.25670000	      1.83307400	      0.37972200	     -0.16713700	      1.53570800	      0.37311100	     -0.23276500	      1.90921200	      0.05955600	     -0.16756600	      1.32792200	      0.12008400	     -0.22559100	      1.73372900	      0.72215300	     -0.20216300	      1.74308200	      0.72441700	     -0.10828400	      1.72437700	      0.71988900	     -0.29604300	      1.59174400	      0.76020100	     -0.16268400	      1.58461600	      0.75796300	     -0.21762500	      1.83719300	      0.37568600	     -0.11696700	      1.52437500	      0.37404600	     -0.28145400	      1.82220400	      0.36681500	     -0.21299100	      1.54765900	      0.37410800	     -0.17964200	      1.90495800	      0.05850000	     -0.13435400	      1.32185000	      0.12411500	     -0.25931200	      1.91089800	      0.06861300	     -0.19409800	      1.32247000	      0.13109500	     -0.19692500	      1.61116100	      1.10482900	     -0.19140000	      1.69158400	      1.05513500	     -0.12886500	      1.69035200	      1.05945200	     -0.25859400	      1.68557900	      1.04641100	     -0.19660300	      1.70252500	      0.90313400	     -0.20079500	      1.80216800	      0.44449100	     -0.02922900	      1.69463800	      0.42348900	     -0.30249500	      1.79807300	      0.51627700	     -0.09096300	      1.66725800	      0.49719300	     -0.23533600	      1.84184400	      0.44769400	     -0.11426100	      1.61917100	      0.42236400	     -0.22051700	      1.87203400	      0.15236500	     -0.06081100	      1.45298800	      0.14398200	     -0.27034600	      1.86842800	      0.21084500	     -0.11960200	      1.44237900	      0.22582400	     -0.24780600	      2.00778800	      0.05540600	     -0.16441000	      1.37239300	      0.04075400	     -0.21886800	    -45.70272893	    200.01663803	      2.46557893	      1.89437915	      0.00000000	     -0.17148082	     56.66361410	    164.08072821	     -6.95816834	      1.38845093	      0.00000000	     -0.20908484	      0.00000000	      0.20987390	      0.00000000	      0.00000000	      0.18773526	      0.00000000	      1.67674494	      0.65109128	     -0.19489473	      1.67446446	      0.66046065	     -0.13152730	      1.66199422	      0.65744209	     -0.25670034	      1.83307421	      0.37972233	     -0.16713682	      1.53570843	      0.37311149	     -0.23276451	      1.90921187	      0.05955588	     -0.16756600	      1.32792222	      0.12008438	     -0.22559093	      1.73372936	      0.72215277	     -0.20216331	      1.74308205	      0.72441667	     -0.10828401	      1.72437680	      0.71988887	     -0.29604262	      1.59174418	      0.76020110	     -0.16268441	      1.58461571	      0.75796288	     -0.21762541	      1.83719325	      0.37568575	     -0.11696721	      1.52437520	      0.37404627	     -0.28145421	      1.82220447	      0.36681458	     -0.21299115	      1.54765916	      0.37410772	     -0.17964222	      1.90495825	      0.05849980	     -0.13435394	      1.32184970	      0.12411518	     -0.25931221	      1.91089821	      0.06861349	     -0.19409835	      1.32247007	      0.13109528	     -0.19692548	      1.61116123	      1.10482883	     -0.19139999	      1.69158423	      1.05513453	     -0.12886505	      1.69035184	      1.05945194	     -0.25859413	      1.68557930	      1.04641116	     -0.19660278	      1.70252478	      0.90313399	     -0.20079488	      1.80216837	      0.44449091	     -0.02922872	      1.69463813	      0.42348897	     -0.30249473	      1.79807329	      0.51627678	     -0.09096325	      1.66725826	      0.49719346	     -0.23533612	      1.84184408	      0.44769377	     -0.11426114	      1.61917078	      0.42236370	     -0.22051664	      1.87203383	      0.15236512	     -0.06081105	      1.45298803	      0.14398183	     -0.27034596	      1.86842823	      0.21084486	     -0.11960214	      1.44237876	      0.22582355	     -0.24780583	      2.00778818	      0.05540608	     -0.16441022	      1.37239337	      0.04075386	     -0.21886845
      0.62500000	      1.73393388	      0.70440237	     -0.20394529	     -1.90970434	     -2.87656919	      4.13371189	     31.86796896	      4.92604321	     -2.72546038	    -17.84836282	     -5.53800512	    -21.78222822	     -0.69141322	     -7.91907351	    -16.64065462	    -12.21296706	     -0.08690866	      4.38868258	     -1.46060704	      0.00000000	      0.00000000	      0.00000000	      0.00000000	      1.84388044	      0.69280217	     -0.13130817	      1.83611689	      0.67467829	     -0.31709698	      1.74411781	      0.70402583	     -0.20468087	      1.70833303	      0.75893909	     -0.20658601	      1.70450455	      0.74882446	     -0.26044562	      1.68539149	      0.66105293	     -0.13710529	      1.67640751	      0.65524857	     -0.25851399	      1.68089950	      0.65815075	     -0.19780964	      1.88723620	      0.38172668	     -0.10745840	      1.87935012	      0.38554841	     -0.20758753	      1.85039788	      0.47519606	     -0.03012666	      1.85780304	      0.54463809	     -0.09729737	      1.89751998	      0.47108859	     -0.11259606	      1.93742184	      0.05379354	     -0.12100587	      1.93853297	      0.06353876	     -0.18031377	      1.90125281	      0.15320012	     -0.04883846	      1.90240563	      0.20954732	     -0.10941656	      1.84495005	      0.37582929	     -0.16359811	      1.90887061	      0.06336610	     -0.18427305	      2.04184571	      0.03617731	     -0.15435706	      1.56393607	      0.32949836	     -0.31496791	      1.58045525	      0.31742239	     -0.21286771	      1.72987793	      0.35112461	     -0.32689412	      1.71113953	      0.42981433	     -0.26198673	      1.65785942	      0.36101651	     -0.25049573	      1.32682028	      0.09873730	     -0.27992857	      1.34042438	      0.09565395	     -0.21779754	      1.45934535	      0.10694140	     -0.30407551	      1.45968049	      0.18743181	     -0.27639900	      1.54349264	      0.35631096	     -0.23816183	      1.33859055	      0.11364590	     -0.20244996	      1.36439369	     -0.00227229	     -0.26266242	      1.68981381	      1.10024714	     -0.13075143	      1.69407528	      1.11616088	     -0.24497059	      1.61134955	      1.10152471	     -0.19095487	      1.69445108	      1.09641098	     -0.19201257	      1.79208113	      0.99064782	     -0.20243434	      1.68855000	      0.65203100	     -0.19377100	      1.68616600	      0.66178600	     -0.13048000	      1.67428100	      0.65768200	     -0.25567900	      1.84383800	      0.38092300	     -0.16755900	      1.55050400	      0.37134900	     -0.23369600	      1.91133900	      0.05876700	     -0.16788200	      1.33637900	      0.12368500	     -0.22681000	      1.74555400	      0.72308100	     -0.20135800	      1.75446100	      0.72615700	     -0.10753700	      1.73664800	      0.72000600	     -0.29517800	      1.60301900	      0.76103300	     -0.16333300	      1.59631500	      0.75826200	     -0.21817800	      1.84885000	      0.37712200	     -0.11745300	      1.53938000	      0.37241600	     -0.28243100	      1.83694600	      0.37107200	     -0.21510700	      1.56348700	      0.37224600	     -0.17932000	      1.90777400	      0.05798700	     -0.13458100	      1.33034300	      0.12796600	     -0.26050700	      1.91243400	      0.06794300	     -0.19434300	      1.33138600	      0.13486900	     -0.19829100	      1.62218000	      1.10548600	     -0.19029600	      1.70284000	      1.05653000	     -0.12780000	      1.70145700	      1.06093500	     -0.25751300	      1.69678000	      1.04760700	     -0.19549600	      1.71495800	      0.90467900	     -0.19985000	      1.81524300	      0.44668500	     -0.02977200	      1.70938500	      0.42344200	     -0.30255800	      1.81069800	      0.51926700	     -0.09193300	      1.68166000	      0.49677300	     -0.23482800	      1.85551600	      0.45149100	     -0.11582200	      1.63438500	      0.42140900	     -0.22019800	      1.87901300	      0.15291800	     -0.06095300	      1.46203600	      0.14426200	     -0.27188900	      1.87608400	      0.21159800	     -0.11972100	      1.45371400	      0.22611600	     -0.24911100	      2.01033100	      0.05182200	     -0.16564500	      1.37534500	      0.04157000	     -0.21891700	    -43.10284848	    206.99452725	      1.49732826	      1.89643066	      0.00000000	     -0.17098763	     46.57031548	    130.32195405	     -7.61766021	      1.39138818	      0.00000000	     -0.20882204	      0.00000000	      0.04508649	      0.00000000	      0.00000000	      0.21685782	      0.00000000	      1.68855023	      0.65203094	     -0.19377078	      1.68616593	      0.66178632	     -0.13047995	      1.67428100	      0.65768242	     -0.25567904	      1.84383774	      0.38092303	     -0.16755919	      1.55050361	      0.37134901	     -0.23369555	      1.91133893	      0.05876686	     -0.16788173	      1.33637893	      0.12368453	     -0.22681040	      1.74555421	      0.72308123	     -0.20135771	      1.75446057	      0.72615653	     -0.10753710	      1.73664796	      0.72000593	     -0.29517832	      1.60301900	      0.76103276	     -0.16333278	      1.59631526	      0.75826216	     -0.21817772	      1.84885013	      0.37712187	     -0.11745253	      1.53937972	      0.37241599	     -0.28243077	      1.83694565	      0.37107193	     -0.21510722	      1.56348658	      0.37224618	     -0.17931956	      1.90777433	      0.05798662	     -0.13458106	      1.33034348	      0.12796576	     -0.26050749	      1.91243398	      0.06794315	     -0.19434305	      1.33138597	      0.13486859	     -0.19829072	      1.62217975	      1.10548592	     -0.19029574	      1.70284045	      1.05653036	     -0.12780035	      1.70145714	      1.06093538	     -0.25751311	      1.69678020	      1.04760671	     -0.19549593	      1.71495783	      0.90467858	     -0.19985014	      1.81524277	      0.44668514	     -0.02977182	      1.70938504	      0.42344216	     -0.30255780	      1.81069827	      0.51926661	     -0.09193283	      1.68166029	      0.49677253	     -0.23482803	      1.85551608	      0.45149088	     -0.11582201	      1.63438499	      0.42140940	     -0.22019786	      1.87901270	      0.15291838	     -0.06095343	      1.46203589	      0.14426181	     -0.27188870	      1.87608397	      0.21159844	     -0.11972089	      1.45371377	      0.22611582	     -0.24911065	      2.01033115	      0.05182216	     -0.16564487	      1.37534511	      0.04156956	     -0.21891692
